# xmcd
#
# Track frame offsets:
#	187
#	20650
#	63720
#	106620
#	150195
#	193227
#	200440
#	206775
#	214445
#	222430
#	236782
#	244017
#	252357
#	262487
#	281070
#
# Disc length: 4020 seconds
#
# Revision: 1
# Processed by: cddbd v1.5.1PL0 Copyright (c) Steve Scherf et al.
# Submitted via: CDex 1.50Beta5
#
DISCID=f40fb20f
DTITLE=松村香澄 - GS美神 リポート2 あの白球を追え!!
DYEAR=1995
DGENRE=
TTITLE0=松村香澄/SINGLE FAKE
TTITLE1=鶴ひろみ/ベースボールは突然に…*ドラマ
TTITLE2=鶴ひろみ/パーフェクトゲーム*ドラマ
TTITLE3=鶴ひろみ/愛と特訓の日々*ドラマ
TTITLE4=鶴ひろみ/頂上決戦*ドラマ
TTITLE5=小坂由美子/BELIEVE ME
TTITLE6=サントラ/美形キャラたるもの
TTITLE7=サントラ/煩脳パワー敗北
TTITLE8=サントラ/眠りの底,意識の底
TTITLE9=サントラ/華麗なる儀式
TTITLE10=サントラ/黒いプレッシャー
TTITLE11=サントラ/追撃の都市
TTITLE12=サントラ/RAVE with 神通扇
TTITLE13=サントラ/GHOST SWEEPER
TTITLE14=サントラ/BELIEVE ME
EXTD=
EXTT0=
EXTT1=
EXTT2=
EXTT3=
EXTT4=
EXTT5=
EXTT6=
EXTT7=
EXTT8=
EXTT9=
EXTT10=
EXTT11=
EXTT12=
EXTT13=
EXTT14=
PLAYORDER=
